<?xml version="1.0" standalone="no"?>
<!DOCTYPE svg PUBLIC "-//W3C//DTD SVG 20010904//EN"
 "http://www.w3.org/TR/2001/REC-SVG-20010904/DTD/svg10.dtd">
<svg version="1.0" xmlns="http://www.w3.org/2000/svg"
 width="20.000000pt" height="20.000000pt" viewBox="0 0 20.000000 20.000000"
 preserveAspectRatio="xMidYMid meet">

<g transform="translate(0.000000,20.000000) scale(0.100000,-0.100000)"
fill="#000000" stroke="none">
<path d="M33 169 c-44 -40 -45 -88 -4 -130 52 -51 133 -36 161 30 40 98 -79
174 -157 100z m97 -26 c0 -6 6 -13 12 -15 7 -3 -10 -4 -39 -4 -28 1 -46 4 -41
7 6 4 8 11 5 15 -3 5 10 9 29 9 19 0 34 -5 34 -12z m-20 -52 c4 -8 13 -10 19
-7 6 4 11 1 12 -6 0 -7 4 -4 8 6 7 19 8 19 13 -2 5 -18 2 -21 -23 -19 -16 1
-29 7 -29 12 0 6 -5 3 -11 -5 -9 -13 -10 -13 -6 0 2 8 -3 20 -12 27 -14 10
-14 11 2 9 10 -1 22 -8 27 -15z m-40 -25 c-7 -7 -14 -6 -21 1 -9 9 -7 12 9 10
14 -1 18 -5 12 -11z m37 -22 c-3 -3 -12 -4 -19 -1 -8 3 -5 6 6 6 11 1 17 -2
13 -5z"/>
</g>
</svg>
